<svg width="30" height="30" viewBox="0 0 30 30" fill="none" xmlns="http://www.w3.org/2000/svg">
<path d="M9.5 12C9.5 13.933 7.933 15.5 6 15.5C4.067 15.5 2.5 13.933 2.5 12C2.5 10.067 4.067 8.5 6 8.5C7.933 8.5 9.5 10.067 9.5 12Z" stroke="#F5F5F5" stroke-width="2"/>
<path d="M11 24.54V29H1V24.004C1.00913 22.9192 1.3708 21.8668 2.03051 21.0056L1.24061 20.4005L2.03051 21.0056C2.69095 20.1434 3.61419 19.5197 4.6606 19.2288C5.70701 18.9379 6.81968 18.9956 7.83037 19.3932C8.84106 19.7908 9.69479 20.5068 10.2625 21.4327L10.9906 22.6204L11.8829 21.5505L16.9735 15.4471L17.7455 16.0888L11.232 23.8996L11 24.1778V24.54ZM10 1H29V2H10V1ZM16 7H29V8H16V7ZM22 13H29V14H22V13Z" stroke="#F5F5F5" stroke-width="2"/>
</svg>
