<svg width="30" height="33" viewBox="0 0 30 33" fill="none" xmlns="http://www.w3.org/2000/svg">
<path fill-rule="evenodd" clip-rule="evenodd" d="M0 7.07143C0 3.16599 3.55539 0 7.94118 0H22.0588C26.4446 0 30 3.16599 30 7.07143V25.9286C30 29.834 26.4446 33 22.0588 33H7.94118C3.55539 33 0 29.834 0 25.9286V7.07143ZM7.94118 1.57143C4.53 1.57143 1.76471 4.03386 1.76471 7.07143V25.9286C1.76471 28.9661 4.53 31.4286 7.94118 31.4286H22.0588C25.47 31.4286 28.2353 28.9661 28.2353 25.9286V7.07143C28.2353 4.03386 25.47 1.57143 22.0588 1.57143H7.94118Z" fill="#F5F5F5"/>
<path fill-rule="evenodd" clip-rule="evenodd" d="M14.9998 12.5714C12.5632 12.5714 10.588 14.3303 10.588 16.5C10.588 18.6697 12.5632 20.4286 14.9998 20.4286C17.4363 20.4286 19.4115 18.6697 19.4115 16.5C19.4115 14.3303 17.4363 12.5714 14.9998 12.5714ZM8.8233 16.5C8.8233 13.4624 11.5886 11 14.9998 11C18.4109 11 21.1762 13.4624 21.1762 16.5C21.1762 19.5376 18.4109 22 14.9998 22C11.5886 22 8.8233 19.5376 8.8233 16.5ZM14.9998 26.7143C11.5886 26.7143 8.8233 29.1767 8.8233 32.2143C8.8233 32.6482 8.42825 33 7.94095 33C7.45364 33 7.05859 32.6482 7.05859 32.2143C7.05859 28.3088 10.614 25.1429 14.9998 25.1429C19.3856 25.1429 22.9409 28.3088 22.9409 32.2143C22.9409 32.6482 22.5458 33 22.0586 33C21.5714 33 21.1762 32.6482 21.1762 32.2143C21.1762 29.1767 18.4109 26.7143 14.9998 26.7143ZM14.9998 6.28571C18.4109 6.28571 21.1762 3.82329 21.1762 0.785714C21.1762 0.35178 21.5714 0 22.0586 0C22.5458 0 22.9409 0.35178 22.9409 0.785714C22.9409 4.69115 19.3856 7.85714 14.9998 7.85714C10.614 7.85714 7.05859 4.69115 7.05859 0.785714C7.05859 0.35178 7.45364 0 7.94095 0C8.42825 0 8.8233 0.35178 8.8233 0.785714C8.8233 3.82329 11.5886 6.28571 14.9998 6.28571Z" fill="#F5F5F5"/>
<path fill-rule="evenodd" clip-rule="evenodd" d="M0 16.4998C0 16.066 0.395047 15.7141 0.882353 15.7141H9.70588C10.1932 15.7141 10.5882 16.066 10.5882 16.4998C10.5882 16.9337 10.1932 17.2855 9.70588 17.2855H0.882353C0.395047 17.2855 0 16.9337 0 16.4998ZM19.4118 16.4998C19.4118 16.066 19.8069 15.7141 20.2941 15.7141H29.1176C29.6049 15.7141 30 16.066 30 16.4998C30 16.9337 29.6049 17.2855 29.1176 17.2855H20.2941C19.8069 17.2855 19.4118 16.9337 19.4118 16.4998Z" fill="#F5F5F5"/>
</svg>
