<svg width="30" height="30" viewBox="0 0 30 30" fill="none" xmlns="http://www.w3.org/2000/svg">
<path fill-rule="evenodd" clip-rule="evenodd" d="M10.5114 28.1571V23.557C10.5114 22.387 11.5154 21.4362 12.7595 21.4284H17.3165C18.5664 21.4284 19.5797 22.3814 19.5797 23.557V28.1714C19.5795 29.1648 20.4225 29.9767 21.4785 30H24.5165C27.5449 30 30 27.691 30 24.8427V11.7568C29.9838 10.6362 29.4244 9.58402 28.481 8.89955L18.0911 1.02795C16.2709 -0.342651 13.6835 -0.342651 11.8633 1.02795L1.51899 8.91383C0.571987 9.59553 0.0116632 10.6495 0 11.771V24.8427C0 27.691 2.45507 30 5.48354 30H8.52152C9.60372 30 10.481 29.1749 10.481 28.1571" fill="#F5F5F5"/>
</svg>
