<svg width="30" height="30" viewBox="0 0 30 30" fill="none" xmlns="http://www.w3.org/2000/svg">
<path d="M6 0C4.4087 0 2.88258 0.632141 1.75736 1.75736C0.632141 2.88258 0 4.4087 0 6V10.5H3V6C3 5.20435 3.31607 4.44129 3.87868 3.87868C4.44129 3.31607 5.20435 3 6 3H24C24.7956 3 25.5587 3.31607 26.1213 3.87868C26.6839 4.44129 27 5.20435 27 6V24C27 24.7956 26.6839 25.5587 26.1213 26.1213C25.5587 26.6839 24.7956 27 24 27H6C5.20435 27 4.44129 26.6839 3.87868 26.1213C3.31607 25.5587 3 24.7956 3 24V19.5H0V24C0 25.5913 0.632141 27.1174 1.75736 28.2426C2.88258 29.3679 4.4087 30 6 30H24C25.5913 30 27.1174 29.3679 28.2426 28.2426C29.3679 27.1174 30 25.5913 30 24V6C30 4.4087 29.3679 2.88258 28.2426 1.75736C27.1174 0.632141 25.5913 0 24 0H6Z" fill="#F5F5F5"/>
<path d="M1.5 13.4999C1.10218 13.4999 0.720644 13.6579 0.43934 13.9392C0.158035 14.2205 0 14.6021 0 14.9999C0 15.3977 0.158035 15.7792 0.43934 16.0605C0.720644 16.3418 1.10218 16.4999 1.5 16.4999H15.873L12.0705 20.3039C11.7973 20.5868 11.6461 20.9657 11.6495 21.359C11.6529 21.7523 11.8107 22.1285 12.0888 22.4066C12.3669 22.6847 12.7431 22.8425 13.1364 22.8459C13.5297 22.8493 13.9086 22.6981 14.1915 22.4249L20.4855 16.1309C20.6476 15.9903 20.7775 15.8166 20.8666 15.6215C20.9557 15.4264 21.0018 15.2144 21.0018 14.9999C21.0018 14.7854 20.9557 14.5734 20.8666 14.3782C20.7775 14.1831 20.6476 14.0094 20.4855 13.8689L14.19 7.57488C14.0516 7.43161 13.8861 7.31734 13.7031 7.23872C13.5201 7.16011 13.3233 7.11873 13.1241 7.117C12.9249 7.11527 12.7274 7.15322 12.5431 7.22864C12.3587 7.30406 12.1912 7.41544 12.0504 7.55628C11.9096 7.69712 11.7982 7.8646 11.7228 8.04894C11.6473 8.23329 11.6094 8.43081 11.6111 8.62998C11.6129 8.82915 11.6542 9.02598 11.7328 9.20898C11.8115 9.39199 11.9257 9.55751 12.069 9.69588L15.873 13.4999H1.5Z" fill="#F5F5F5"/>
</svg>
