<svg width="30" height="30" viewBox="0 0 30 30" fill="none" xmlns="http://www.w3.org/2000/svg">
<path fill-rule="evenodd" clip-rule="evenodd" d="M8.71834 0.498405C10.341 0.224637 12.4495 0 14.9999 0C16.0268 0 16.9822 0.0364325 17.8632 0.0978279C18.4398 0.138014 18.8746 0.637995 18.8344 1.21457C18.7942 1.79114 18.2942 2.22597 17.7177 2.18579C16.8842 2.1277 15.9774 2.09302 14.9999 2.09302C12.5729 2.09302 10.5809 2.30678 9.06656 2.56227C7.3825 2.8464 7.02872 2.9527 6.65769 3.40965C6.29206 3.85998 6.25733 4.2859 6.3324 6.17682C6.45753 9.32842 6.87326 12.7294 8.16081 15.3159C8.79637 16.5927 9.62732 17.6354 10.7099 18.3614C11.7856 19.0829 13.1733 19.5349 14.9999 19.5349C16.8265 19.5349 18.2143 19.0829 19.2898 18.3614C20.3725 17.6354 21.2034 16.5927 21.839 15.3159C23.1265 12.7294 23.5423 9.32842 23.6673 6.17682C23.7424 4.2859 23.7077 3.85998 23.3421 3.40965C23.0532 3.05393 22.7521 2.89616 21.7803 2.71072C21.2125 2.60237 20.8402 2.05432 20.9485 1.48659C21.0568 0.918851 21.6049 0.546447 22.1726 0.654781C23.2701 0.864223 24.1956 1.14045 24.967 2.09034C25.8839 3.21961 25.8315 4.49111 25.768 6.031C25.765 6.10663 25.7618 6.1829 25.7587 6.25984C25.6317 9.46137 25.2093 13.2419 23.7127 16.2487C22.9561 17.7685 21.9083 19.1254 20.4556 20.0997C18.9961 21.0787 17.1919 21.6279 14.9999 21.6279C12.808 21.6279 11.0037 21.0787 9.54407 20.0997C8.09138 19.1254 7.04365 17.7685 6.28709 16.2487C4.79039 13.2419 4.36813 9.46137 4.24101 6.25984C4.23797 6.1829 4.23482 6.10663 4.2317 6.031C4.16828 4.49111 4.11592 3.21961 5.03283 2.09034C5.94892 0.962079 7.12056 0.765949 8.53018 0.529995C8.59244 0.519572 8.65516 0.509079 8.71834 0.498405Z" fill="#F5F5F5"/>
<path fill-rule="evenodd" clip-rule="evenodd" d="M25.7603 6.66658L24.4366 6.22536L25.0985 4.23975L26.4222 4.68097C26.4396 4.68676 26.4569 4.69255 26.4742 4.69831C27.1204 4.91367 27.6868 5.10243 28.1362 5.31149C28.6219 5.53748 29.0672 5.82856 29.4075 6.30077C29.7478 6.77297 29.8832 7.28737 29.9439 7.81969C30.0001 8.3121 30.0001 8.90914 30 9.59031V9.74635C30 9.76192 30 9.77747 30 9.79295C30.0001 10.3536 30.0001 10.8488 29.9587 11.263C29.9139 11.7118 29.8145 12.1482 29.5663 12.5699C29.3182 12.9917 28.985 13.2904 28.6144 13.5476C28.2724 13.7849 27.8396 14.0253 27.3494 14.2976L23.1827 16.6125L22.1663 14.7829L26.2922 12.4906C26.8352 12.189 27.1752 11.9987 27.4211 11.8281C27.6477 11.6708 27.7215 11.5781 27.7624 11.5085C27.8034 11.4389 27.8486 11.3293 27.876 11.0548C27.9058 10.7571 27.907 10.3675 27.907 9.74629V9.64509C27.9071 8.89289 27.9054 8.41661 27.8644 8.05706C27.8264 7.72424 27.7642 7.60051 27.7095 7.52455C27.6548 7.4486 27.5571 7.3505 27.2534 7.2092C26.9252 7.05657 26.4739 6.90444 25.7603 6.66658ZM3.5779 4.68097L4.90158 4.23975L5.56345 6.22536L4.23977 6.66658C3.52618 6.90444 3.07483 7.05657 2.74672 7.2092C2.44299 7.3505 2.34527 7.4486 2.29053 7.52455C2.23579 7.60051 2.17362 7.72424 2.13564 8.05706C2.09458 8.41661 2.09302 8.89289 2.09305 9.64509V9.74629C2.09306 10.3675 2.09428 10.7571 2.12403 11.0548C2.15146 11.3293 2.19668 11.4389 2.23764 11.5085C2.27859 11.5781 2.3524 11.6708 2.57902 11.8281C2.82486 11.9987 3.16486 12.189 3.70786 12.4906L7.83379 14.7829L6.8173 16.6125L2.65065 14.2976C2.16051 14.0253 1.72763 13.7849 1.38569 13.5476C1.0151 13.2904 0.681871 12.9917 0.433722 12.5699C0.185572 12.1482 0.0862364 11.7118 0.0413757 11.263C-1.04742e-05 10.8488 3.53493e-06 10.3536 1.74885e-05 9.79294C1.74885e-05 9.77745 1.74885e-05 9.76192 1.74885e-05 9.74635V9.64515C3.53493e-06 9.6268 3.51598e-06 9.60852 3.51598e-06 9.59029C-5.22982e-05 8.90913 -0.00010812 8.3121 0.0560968 7.81969C0.116864 7.28737 0.252228 6.77297 0.592555 6.30077C0.932896 5.82856 1.37808 5.53748 1.86388 5.31149C2.31324 5.10243 2.87964 4.91367 3.52587 4.6983C3.54316 4.69255 3.5605 4.68676 3.5779 4.68097ZM15.0001 20.9302C15.578 20.9302 16.0466 21.3988 16.0466 21.9767V24.7674C16.0466 25.3454 15.578 25.8139 15.0001 25.8139C14.4221 25.8139 13.9535 25.3454 13.9535 24.7674V21.9767C13.9535 21.3988 14.4221 20.9302 15.0001 20.9302Z" fill="#F5F5F5"/>
<path fill-rule="evenodd" clip-rule="evenodd" d="M9.56398 26.3817C9.79226 25.2403 10.7944 24.4187 11.9584 24.4187H18.0427C19.2067 24.4187 20.2089 25.2403 20.4372 26.3817L20.9105 28.7483C20.972 29.0557 20.8925 29.3746 20.6936 29.6171C20.4949 29.8596 20.1978 30.0001 19.8843 30.0001H10.1168C9.80331 30.0001 9.50629 29.8596 9.30753 29.6171C9.10874 29.3746 9.02915 29.0557 9.09065 28.7483L9.56398 26.3817ZM11.9584 26.5117C11.7922 26.5117 11.649 26.6291 11.6164 26.7922L11.3934 27.9071H18.6078L18.3847 26.7922C18.3522 26.6291 18.209 26.5117 18.0427 26.5117H11.9584Z" fill="#F5F5F5"/>
<path fill-rule="evenodd" clip-rule="evenodd" d="M5.58105 28.9535C5.58105 28.3755 6.0496 27.907 6.62757 27.907H23.3718C23.9498 27.907 24.4183 28.3755 24.4183 28.9535C24.4183 29.5314 23.9498 30 23.3718 30H6.62757C6.0496 30 5.58105 29.5314 5.58105 28.9535Z" fill="#F5F5F5"/>
</svg>
