<svg width="100" height="100" viewBox="0 0 100 100" fill="none" xmlns="http://www.w3.org/2000/svg">
<rect x="0.5" y="0.5" width="99" height="99" rx="31.5" stroke="#F5F5F5"/>
<path d="M42.3004 45.2C42.3004 48.9003 39.3007 51.9 35.6004 51.9C31.9001 51.9 28.9004 48.9003 28.9004 45.2C28.9004 41.4997 31.9001 38.5 35.6004 38.5C39.3007 38.5 42.3004 41.4997 42.3004 45.2Z" fill="white" stroke="white"/>
<path d="M44.816 64.9438L44.7 65.0829V65.264V73.5H26.5V64.4019C26.5156 62.426 27.1739 60.5088 28.3756 58.94C29.5776 57.3708 31.2579 56.2357 33.1623 55.7062C35.0668 55.1768 37.0919 55.2818 38.9313 56.0055C40.7708 56.7292 42.3246 58.0322 43.3577 59.7173L43.7218 60.3112L44.168 59.7763L53.0163 49.1676L55.9433 51.6004L44.816 64.9438ZM40.9 26.5H73.5V30.3H40.9V26.5ZM50.5 36.1H73.5V39.9H50.5V36.1ZM60.1 45.7H73.5V49.5H60.1V45.7Z" fill="white" stroke="white"/>
</svg>
